<?xml version="1.0" encoding="UTF-8"?>
<svg width="64px" height="64px" viewBox="0 0 64 64" version="1.1" xmlns="http://www.w3.org/2000/svg" xmlns:xlink="http://www.w3.org/1999/xlink">
    <!-- Generator: Sketch 61.2 (89653) - https://sketch.com -->
    <title>博客图片备份 2</title>
    <desc>Created with Sketch.</desc>
    <defs>
        <linearGradient x1="50%" y1="100%" x2="50%" y2="3.061617e-15%" id="linearGradient-1">
            <stop stop-color="#20C064" offset="0%"></stop>
            <stop stop-color="#199950" offset="100%"></stop>
        </linearGradient>
        <filter x="-11.5%" y="-11.5%" width="123.1%" height="123.1%" filterUnits="objectBoundingBox" id="filter-2">
            <feGaussianBlur stdDeviation="2" in="SourceGraphic"></feGaussianBlur>
        </filter>
    </defs>
    <g id="博客图片备份-2" stroke="none" stroke-width="1" fill="none" fill-rule="evenodd">
        <g id="编组-2" transform="translate(6.000000, 6.000000)">
            <path d="M28.1755928,1 C15.3941617,7.40033196 2.29233245,21.9358672 2,45.9920666 C23.9720345,55.3359778 34.0716384,55.3359778 53.99099,45.9920666 C54.3541923,27.4269874 43.7027616,7.33573779 28.1755928,1 Z" id="路径-3备份" fill-opacity="0.6" fill="url(#linearGradient-1)" filter="url(#filter-2)" transform="translate(28.000000, 27.000000) scale(1, -1) translate(-28.000000, -27.000000) "></path>
            <path d="M26.1755928,0 C13.3941617,6.40033196 0.292332451,20.9358672 0,44.9920666 C21.9720345,54.3359778 32.0716384,54.3359778 51.99099,44.9920666 C52.3541923,26.4269874 41.7027616,6.33573779 26.1755928,0 Z" id="路径-3" fill="url(#linearGradient-1)" transform="translate(26.000000, 26.000000) scale(1, -1) translate(-26.000000, -26.000000) "></path>
            <text id="F" font-family="BrushScriptMT, Brush Script MT" font-size="30" font-weight="normal" fill="#F8FAFF">
                <tspan x="16" y="35">F</tspan>
            </text>
        </g>
    </g>
</svg>